# xmcd
#
# Track frame offsets: 
#        182
#        24980
#        39340
#        59922
#        66345
#        100910
#        129787
#        156977
#        171500
#        201365
#        229192
#        256677
#        271665
#        297025
#        306345
#        329357
#
# Disc length: 4562 seconds
#
# Revision: 6
# Processed by: cddbd v1.5.2PL0 Copyright (c) Steve Scherf et al.
# Submitted via: ExactAudioCopy v0.99pb5
#
DISCID=e611d010
DTITLE=Taraf de Haïdouks - Honourable Brigands, Magic Horses, and Evil
DTITLE=Eye
DYEAR=1994
DGENRE=Gypsy
TTITLE0=Spune, spune, mos batrin...
TTITLE1=Hora din caval
TTITLE2=Azi eram frumoasa, juna...
TTITLE3=Tiganeasca
TTITLE4=Cind eram la '48
TTITLE5=Geamparale
TTITLE6=Cintec de Dragoste si joc
TTITLE7=Doina si cintec
TTITLE8=Jalea Tiganilor
TTITLE9=Turceasca
TTITLE10=Balada lui Corbea
TTITLE11=Sirba
TTITLE12=De ma deie but te pau
TTITLE13=Briu
TTITLE14=Duba, duba... si hora
TTITLE15=Lelita circiumareasa
EXTD=YEAR: 1994
EXTT0=
EXTT1=
EXTT2=
EXTT3=
EXTT4=
EXTT5=
EXTT6=
EXTT7=
EXTT8=
EXTT9=
EXTT10=
EXTT11=
EXTT12=
EXTT13=
EXTT14=
EXTT15=
PLAYORDER=
